#N canvas 535 202 576 415 10;
#X obj 82 134 mtof;
#X obj 82 165 phasor~;
#X obj 103 251 dac~;
#X obj 307 124 comport 0 9600;
#X msg 308 59 ports;
#X msg 300 22 devices;
#X obj 307 197 send;
#X obj 307 162 serial_print space;
#X msg 333 91 open 0;
#X obj 86 28 r note;
#X obj 173 289 loadbang;
#X obj 174 328 del 1000;
#X floatatom 85 101 5 0 0 0 - - -, f 5;
#X msg 174 359 \; pd dsp 1;
#X obj 219 73 r light;
#X obj 86 58 float;
#X obj 195 137 float;
#X obj 195 165 / 100;
#X obj 217 200 print;
#X obj 89 201 expr~ $v1 > $v2;
#X connect 0 0 1 0;
#X connect 1 0 19 0;
#X connect 3 0 7 0;
#X connect 4 0 3 0;
#X connect 5 0 3 0;
#X connect 7 0 6 0;
#X connect 7 1 6 1;
#X connect 8 0 3 0;
#X connect 9 0 15 0;
#X connect 10 0 11 0;
#X connect 11 0 13 0;
#X connect 12 0 0 0;
#X connect 14 0 16 0;
#X connect 15 0 12 0;
#X connect 16 0 17 0;
#X connect 17 0 18 0;
#X connect 17 0 19 1;
#X connect 19 0 2 0;
#X connect 19 0 2 1;
